<svg xmlns="http://www.w3.org/2000/svg" viewBox="0 0 100 100" width="32" height="32">
  <defs>
    <linearGradient id="brainGradient" x1="0%" y1="0%" x2="100%" y2="100%">
      <stop offset="0%" style="stop-color:#667eea;stop-opacity:1" />
      <stop offset="100%" style="stop-color:#764ba2;stop-opacity:1" />
    </linearGradient>
  </defs>
  
  <!-- Brain shape -->
  <path d="M30 25 C20 15, 35 10, 45 15 C55 10, 70 15, 70 25 C75 20, 85 25, 85 35 C90 40, 85 50, 80 55 C85 60, 80 70, 75 75 C70 80, 60 75, 55 70 C50 75, 40 75, 35 70 C30 75, 20 70, 15 65 C10 60, 15 50, 20 45 C15 40, 20 30, 30 25 Z" 
        fill="url(#brainGradient)" 
        stroke="#4c51bf" 
        stroke-width="2"/>
  
  <!-- Brain folds/details -->
  <path d="M35 30 Q45 25, 55 30" fill="none" stroke="#4c51bf" stroke-width="1.5" opacity="0.7"/>
  <path d="M30 40 Q40 35, 50 40" fill="none" stroke="#4c51bf" stroke-width="1.5" opacity="0.7"/>
  <path d="M45 45 Q55 40, 65 45" fill="none" stroke="#4c51bf" stroke-width="1.5" opacity="0.7"/>
  <path d="M35 55 Q45 50, 55 55" fill="none" stroke="#4c51bf" stroke-width="1.5" opacity="0.7"/>
  
  <!-- Question mark overlay -->
  <circle cx="50" cy="50" r="15" fill="rgba(255,255,255,0.9)" stroke="#4c51bf" stroke-width="2"/>
  <text x="50" y="58" font-family="Arial, sans-serif" font-size="18" font-weight="bold" text-anchor="middle" fill="#4c51bf">?</text>
</svg>
